<svg width="49" height="50" viewBox="0 0 49 50" fill="none" xmlns="http://www.w3.org/2000/svg">
<path d="M48.6688 23.296C48.9248 24.96 48.6048 28.608 48.6048 28.608C47.1328 41.792 39.0688 49.664 25.4368 49.664C11.0368 49.664 0.86075 39.424 0.86075 24.896C0.86075 10.368 11.0368 0.191998 25.4368 0.191998C40.7968 0.191998 46.3648 11.84 46.3648 11.84L38.2368 16.384C38.2368 16.384 34.5248 8.64 25.3728 8.64C16.2847 8.64 10.5888 14.912 10.5888 24.896C10.5888 34.944 16.2847 41.216 25.3728 41.216C31.2607 41.216 38.6848 38.592 38.8768 30.976H26.6528V23.296H48.6688Z" fill="url(#paint0_linear_1_155)"/>
<defs>
<linearGradient id="paint0_linear_1_155" x1="-3" y1="-15" x2="52.324" y2="65.4648" gradientUnits="userSpaceOnUse">
<stop stop-color="#8A61FF"/>
<stop offset="1" stop-color="#FF7EF2"/>
</linearGradient>
</defs>
</svg>
